HIERARCHY
ROOT Hips
{
	OFFSET 0.000000 0.000000 0.000000
	CHANNELS 6 Xposition Yposition Zposition Xrotation Yrotation Zrotation
	JOINT LeftUpLeg_virtual
	{
		OFFSET 0.000000 0.000000 0.000000
		CHANNELS 3 Xrotation Yrotation Zrotation
		JOINT LeftUpLeg
		{
			OFFSET 11.394100 -6.187798 -0.413800
			CHANNELS 3 Xrotation Yrotation Zrotation
			JOINT LeftLeg
			{
				OFFSET 0.430247 -32.302673 3.732800
				CHANNELS 3 Xrotation Yrotation Zrotation
				JOINT LeftFoot
				{
					OFFSET -0.430247 -48.264931 -6.423300
					CHANNELS 3 Xrotation Yrotation Zrotation
					JOINT LeftToeBase
					{
						OFFSET 4.230900 -16.068199 23.438400
						CHANNELS 3 Xrotation Yrotation Zrotation
						JOINT LeftToe_End
						{
							OFFSET 4.510700 0.695400 19.974600
							CHANNELS 3 Xrotation Yrotation Zrotation
							End Site
							{
								OFFSET 0 0 0
							}
						}
					}
				}
			}
		}
	}
	JOINT RightUpLeg_virtual
	{
		OFFSET 0.000000 0.000000 0.000000
		CHANNELS 3 Xrotation Yrotation Zrotation
		JOINT RightUpLeg
		{
			OFFSET -11.333700 -6.187798 -0.413800
			CHANNELS 3 Xrotation Yrotation Zrotation
			JOINT RightLeg
			{
				OFFSET -0.430392 -32.302628 3.733000
				CHANNELS 3 Xrotation Yrotation Zrotation
				JOINT RightFoot
				{
					OFFSET 0.430392 -48.264973 -6.423500
					CHANNELS 3 Xrotation Yrotation Zrotation
					JOINT RightToeBase
					{
						OFFSET -4.230900 -16.068199 23.438400
						CHANNELS 3 Xrotation Yrotation Zrotation
						JOINT RightToe_End
						{
							OFFSET -4.510700 0.695400 19.974600
							CHANNELS 3 Xrotation Yrotation Zrotation
							End Site
							{
								OFFSET 0 0 0
							}
						}
					}
				}
			}
		}
	}
	JOINT Spine_virtual
	{
		OFFSET 0.000000 0.000000 0.000000
		CHANNELS 3 Xrotation Yrotation Zrotation
		JOINT Spine
		{
			OFFSET -0.002400 12.777504 0.315300
			CHANNELS 3 Xrotation Yrotation Zrotation
			JOINT Spine1
			{
				OFFSET -0.002067 5.816869 0.032633
				CHANNELS 3 Xrotation Yrotation Zrotation
				JOINT Spine1_split
				{
					OFFSET -0.002067 5.816869 0.032633
					CHANNELS 3 Xrotation Yrotation Zrotation
					JOINT Spine2
					{
						OFFSET -0.002067 5.816869 0.032633
						CHANNELS 3 Xrotation Yrotation Zrotation
						JOINT Neck_virtual
						{
							OFFSET 0.000000 0.000000 0.000000
							CHANNELS 3 Xrotation Yrotation Zrotation
							JOINT Neck
							{
								OFFSET -0.003700 21.199493 -0.826900
								CHANNELS 3 Xrotation Yrotation Zrotation
								JOINT Head
								{
									OFFSET 0.000000 20.442200 4.834800
									CHANNELS 3 Xrotation Yrotation Zrotation
									JOINT HeadTop_End
									{
										OFFSET 0.000000 34.668396 4.968400
										CHANNELS 3 Xrotation Yrotation Zrotation
										End Site
										{
											OFFSET 0 0 0
										}
									}
								}
							}
						}
						JOINT LeftShoulder_virtual
						{
							OFFSET 0.000000 0.000000 0.000000
							CHANNELS 3 Xrotation Yrotation Zrotation
							JOINT LeftShoulder
							{
								OFFSET 3.288150 8.794197 -1.372250
								CHANNELS 3 Xrotation Yrotation Zrotation
								JOINT LeftShoulder_split
								{
									OFFSET 3.288150 8.794197 -1.372250
									CHANNELS 3 Xrotation Yrotation Zrotation
									JOINT LeftArm
									{
										OFFSET 11.953299 -2.279007 -0.146200
										CHANNELS 3 Xrotation Yrotation Zrotation
										JOINT LeftForeArm
										{
											OFFSET 18.448900 0.000000 0.000000
											CHANNELS 3 Xrotation Yrotation Zrotation
											JOINT LeftHand
											{
												OFFSET 29.527798 0.000000 0.000000
												CHANNELS 3 Xrotation Yrotation Zrotation
												End Site
												{
													OFFSET 0 0 0
												}
											}
										}
									}
								}
							}
						}
						JOINT RightShoulder_virtual
						{
							OFFSET 0.000000 0.000000 0.000000
							CHANNELS 3 Xrotation Yrotation Zrotation
							JOINT RightShoulder
							{
								OFFSET -3.249400 8.794197 -1.372250
								CHANNELS 3 Xrotation Yrotation Zrotation
								JOINT RightShoulder_split
								{
									OFFSET -3.249400 8.794197 -1.372250
									CHANNELS 3 Xrotation Yrotation Zrotation
									JOINT RightArm
									{
										OFFSET -11.953299 -2.279007 -0.146200
										CHANNELS 3 Xrotation Yrotation Zrotation
										JOINT RightForeArm
										{
											OFFSET -18.448900 0.000000 0.000000
											CHANNELS 3 Xrotation Yrotation Zrotation
											JOINT RightHand
											{
												OFFSET -29.527802 0.000000 0.000000
												CHANNELS 3 Xrotation Yrotation Zrotation
												End Site
												{
													OFFSET 0 0 0
												}
											}
										}
									}
								}
							}
						}
					}
				}
			}
		}
	}
}
MOTION
Frames: 4
Frame Time: 0.03333333
2.717152 71.687561 -3.946373 0.000000 0.000000 0.000000 25.160633 -9.894206 -2.086346 -110.864946 -7.965200 -6.032072 53.070638 25.883746 -8.445975 44.254875 16.914007 -1.736223 -6.095337 3.061207 1.938298 0.000000 0.000000 0.000000 25.364223 -7.242437 -3.867111 17.654489 -7.752220 4.394686 39.939726 -3.677481 1.503671 -12.247282 -15.213039 30.052699 -45.382113 1.217461 4.838154 0.000000 0.000000 0.000000 18.979294 -9.176421 -5.306588 10.630783 13.297096 -10.163969 1.351600 4.321990 -0.865044 0.448347 1.383355 0.497750 0.000000 0.000000 0.000000 1.449441 4.716110 -0.917967 -0.804135 -3.461745 3.348736 -4.212325 -7.430347 11.370731 0.000000 0.000000 0.000000 2.648991 4.531635 -0.875009 1.535630 2.454931 -16.151729 -1.281802 -1.105172 -1.727919 -1.933323 24.062717 -36.888622 2.509048 -21.845508 -0.830307 0.000000 0.000000 0.000000 2.493564 4.444193 -0.822189 3.858801 12.711375 -5.465768 1.613972 0.826687 2.397257 -47.674072 66.264446 15.767044 -172.202388 76.911031 170.195105 0.000000 0.000000 0.000000 
1.541906 72.001465 -1.619583 0.000000 0.000000 0.000000 25.942918 -9.811977 -2.338262 -110.776086 -8.063616 -5.237240 54.272072 24.080091 -7.924442 44.364186 16.669722 -2.351699 -6.631652 2.942190 2.222187 0.000000 0.000000 0.000000 26.451444 -6.460221 -4.336549 16.662875 -8.805721 3.735872 40.036598 -3.105475 1.614376 -10.613118 -14.447131 28.782028 -44.432054 0.553498 5.955323 0.000000 0.000000 0.000000 20.423140 -8.172255 -5.350736 11.076713 12.764159 -10.569369 1.676598 4.107422 -0.807372 0.616137 1.067933 0.417065 0.000000 0.000000 0.000000 1.601589 4.573064 -0.914842 -0.826020 -2.952190 3.178649 -4.266930 -7.860873 11.338767 0.000000 0.000000 0.000000 2.835164 4.299955 -0.851928 1.498501 1.617853 -16.337027 -1.822045 -2.140767 -1.906930 -4.422366 22.725839 -36.364245 2.626374 -23.649303 -0.773194 0.000000 0.000000 0.000000 2.565171 4.228680 -0.704196 3.867203 13.002415 -5.296652 1.636961 0.434656 2.235750 -44.931949 65.233784 12.763647 -170.569344 77.450698 168.796104 0.000000 0.000000 0.000000 
-0.762711 72.639481 1.604385 0.000000 0.000000 0.000000 27.431629 -9.394842 -2.560594 -111.652590 -8.062576 -3.572922 57.274702 21.332291 -7.493362 42.591226 17.079525 -2.134871 -7.637412 2.820402 1.987861 0.000000 0.000000 0.000000 28.393091 -5.002777 -4.809723 12.792571 -10.204927 2.120667 41.496381 -2.490754 1.736848 -7.633128 -13.916243 26.553643 -44.825135 -0.926032 8.602660 0.000000 0.000000 0.000000 22.981847 -7.262952 -5.346376 12.104740 11.632370 -11.037346 1.844095 3.767381 -0.909144 1.058074 1.040784 0.071520 0.000000 0.000000 0.000000 1.679676 4.318962 -1.082183 -1.216726 -2.458358 3.005311 -4.679818 -8.715979 11.500970 0.000000 0.000000 0.000000 2.803558 3.960680 -0.964840 1.384725 0.428833 -17.099655 -2.472334 -2.352927 -2.502878 -7.742509 20.932921 -34.706449 2.971089 -27.528623 -0.432400 0.000000 0.000000 0.000000 2.428191 3.863296 -0.746288 3.825981 13.520596 -4.813613 1.307712 0.526582 2.054570 -39.090358 62.516571 7.100419 -169.745582 76.650937 168.048704 0.000000 0.000000 0.000000 
-3.666514 73.384613 5.156506 0.000000 0.000000 0.000000 29.443702 -8.619489 -2.733676 -113.273052 -7.771523 -1.244754 60.967751 18.106459 -7.080140 38.783508 17.891952 -1.074806 -9.171731 2.658035 1.520300 0.000000 0.000000 0.000000 30.829114 -3.294923 -5.147494 6.050337 -11.866988 -0.453495 43.982522 -2.035035 1.851579 -4.340318 -14.128929 23.422682 -45.981428 -2.876304 11.705503 0.000000 0.000000 0.000000 26.273031 -6.573739 -5.263318 13.460666 10.116600 -11.500517 1.817861 3.355454 -1.115002 1.448271 1.113947 -0.014422 0.000000 0.000000 0.000000 1.682856 3.993984 -1.348046 -1.937312 -2.031006 2.782387 -5.415776 -9.860589 11.762650 0.000000 0.000000 0.000000 2.634506 3.575408 -1.180215 1.207887 -0.853384 -18.408430 -3.165923 -1.736825 -3.274922 -10.738750 18.968776 -32.539902 3.447271 -32.605670 0.131331 0.000000 0.000000 0.000000 2.141358 3.428413 -0.927905 3.790207 14.124928 -4.173704 0.856284 1.090489 1.877444 -32.752833 58.601705 1.511676 -170.139739 74.467722 168.403068 0.000000 0.000000 0.000000 
